{
	"asset":{
		"generator":"Khronos glTF Blender I/O v4.0.43",
		"version":"2.0"
	},
	"scene":0,
	"scenes":[
		{
			"name":"Scene",
			"nodes":[
				0
			]
		}
	],
	"nodes":[
		{
			"mesh":0,
			"name":"group1926919455"
		}
	],
	"materials":[
		{
			"name":"mat20",
			"pbrMetallicRoughness":{
				"baseColorFactor":[
					0.1899999976158142,
					0.09000000357627869,
					0.05999999865889549,
					1
				],
				"metallicFactor":0
			}
		},
		{
			"name":"mat9",
			"pbrMetallicRoughness":{
				"baseColorFactor":[
					0.27000001072883606,
					0.550000011920929,
					0.07000000029802322,
					1
				],
				"metallicFactor":0
			}
		}
	],
	"meshes":[
		{
			"name":"mesh1926919455",
			"primitives":[
				{
					"attributes":{
						"POSITION":0,
						"NORMAL":1,
						"TEXCOORD_0":2
					},
					"indices":3,
					"material":0
				},
				{
					"attributes":{
						"POSITION":4,
						"NORMAL":5,
						"TEXCOORD_0":6
					},
					"indices":7,
					"material":1
				}
			]
		}
	],
	"accessors":[
		{
			"bufferView":0,
			"componentType":5126,
			"count":90,
			"max":[
				0.43500009179115295,
				0.7064102292060852,
				0.43500009179115295
			],
			"min":[
				-0.43500009179115295,
				-0.736236572265625,
				-0.43500009179115295
			],
			"type":"VEC3"
		},
		{
			"bufferView":1,
			"componentType":5126,
			"count":90,
			"type":"VEC3"
		},
		{
			"bufferView":2,
			"componentType":5126,
			"count":90,
			"type":"VEC2"
		},
		{
			"bufferView":3,
			"componentType":5123,
			"count":90,
			"type":"SCALAR"
		},
		{
			"bufferView":4,
			"componentType":5126,
			"count":30,
			"max":[
				0.43500009179115295,
				0.736236572265625,
				0.43500009179115295
			],
			"min":[
				-0.43500009179115295,
				0.7064101099967957,
				-0.43500009179115295
			],
			"type":"VEC3"
		},
		{
			"bufferView":5,
			"componentType":5126,
			"count":30,
			"type":"VEC3"
		},
		{
			"bufferView":6,
			"componentType":5126,
			"count":30,
			"type":"VEC2"
		},
		{
			"bufferView":7,
			"componentType":5123,
			"count":30,
			"type":"SCALAR"
		}
	],
	"bufferViews":[
		{
			"buffer":0,
			"byteLength":1080,
			"byteOffset":0,
			"target":34962
		},
		{
			"buffer":0,
			"byteLength":1080,
			"byteOffset":1080,
			"target":34962
		},
		{
			"buffer":0,
			"byteLength":720,
			"byteOffset":2160,
			"target":34962
		},
		{
			"buffer":0,
			"byteLength":180,
			"byteOffset":2880,
			"target":34963
		},
		{
			"buffer":0,
			"byteLength":360,
			"byteOffset":3060,
			"target":34962
		},
		{
			"buffer":0,
			"byteLength":360,
			"byteOffset":3420,
			"target":34962
		},
		{
			"buffer":0,
			"byteLength":240,
			"byteOffset":3780,
			"target":34962
		},
		{
			"buffer":0,
			"byteLength":60,
			"byteOffset":4020,
			"target":34963
		}
	],
	"buffers":[
		{
			"byteLength":4080,
			"uri":"FloatingIsland.bin"
		}
	]
}
